<svg width="18" height="19" viewBox="0 0 18 19" fill="none" xmlns="http://www.w3.org/2000/svg">
<path d="M9.98545e-05 7.73725C-0.00238072 7.88928 0.0414072 8.03848 0.125658 8.16505C0.209908 8.29163 0.330642 8.38961 0.47185 8.446L7.6726 11.3267L10.5533 18.5282C10.609 18.6675 10.7051 18.7869 10.8293 18.871C10.9535 18.9551 11.1001 19.0001 11.2501 19H11.2621C11.414 18.9976 11.5616 18.9491 11.6853 18.861C11.8091 18.7729 11.9032 18.6493 11.9551 18.5065L17.9551 2.0065C18.0042 1.87227 18.014 1.7268 17.9832 1.58722C17.9524 1.44764 17.8823 1.31977 17.7813 1.21866C17.6803 1.11755 17.5525 1.04741 17.4129 1.01651C17.2733 0.985615 17.1279 0.995237 16.9936 1.04425L0.4936 7.04425C0.350774 7.09632 0.227123 7.19053 0.139002 7.31441C0.0508818 7.43828 0.00244525 7.58599 9.98545e-05 7.738V7.73725Z" fill="#37454D"/>
</svg>
